<svg xmlns="http://www.w3.org/2000/svg" width="40" height="40"><rect width="100%" height="100%" fill="gray"/><path fill="#FFF" d="M6.08 20.8h1.98v-2.13q0-.3.04-.66L6.08 20.8Zm2.95 0h.82v.64q0 .09-.06.16-.06.06-.17.06h-.59v1.59h-.97v-1.59H5.32q-.12 0-.2-.06-.09-.07-.11-.18l-.12-.56 3.09-4.12h1.05v4.06Zm6.04-.8q0 .85-.18 1.48t-.5 1.04q-.33.4-.76.61-.44.2-.95.2t-.94-.2q-.44-.21-.76-.61-.32-.41-.5-1.04-.18-.63-.18-1.48 0-.86.18-1.48.18-.63.5-1.04.32-.41.76-.61.43-.2.94-.2t.95.2q.43.2.76.61.32.41.5 1.04.18.62.18 1.48Zm-1.15 0q0-.71-.1-1.17-.1-.46-.28-.74-.17-.27-.39-.38-.23-.11-.47-.11-.24 0-.46.11-.23.11-.4.38-.17.28-.27.74-.1.46-.1 1.17t.1 1.17q.1.46.27.74.17.27.4.38.22.11.46.11.24 0 .47-.11.22-.11.39-.38.18-.28.28-.74.1-.46.1-1.17Zm8.3 1.76-.59.58-1.53-1.52-1.54 1.53-.58-.58 1.53-1.54-1.46-1.47.58-.58 1.47 1.46 1.46-1.45.59.58-1.46 1.46 1.53 1.53Zm3.9-.96h1.98v-2.13q0-.3.04-.66l-2.02 2.79Zm2.94 0h.82v.64q0 .09-.06.16-.05.06-.16.06h-.6v1.59h-.96v-1.59h-2.75q-.11 0-.2-.06-.08-.07-.11-.18l-.11-.56 3.08-4.12h1.05v4.06Zm6.05-.8q0 .85-.19 1.48-.18.63-.5 1.04-.32.4-.76.61-.44.2-.95.2t-.94-.2q-.43-.21-.75-.61-.32-.41-.5-1.04-.18-.63-.18-1.48 0-.86.18-1.48.18-.63.5-1.04.32-.41.75-.61t.94-.2q.51 0 .95.2.44.2.76.61t.5 1.04q.19.62.19 1.48Zm-1.15 0q0-.71-.1-1.17-.11-.46-.28-.74-.17-.27-.4-.38-.22-.11-.47-.11-.24 0-.46.11-.22.11-.39.38-.17.28-.27.74-.11.46-.11 1.17t.11 1.17q.1.46.27.74.17.27.39.38.22.11.46.11.25 0 .47-.11.23-.11.4-.38.17-.28.28-.74.1-.46.1-1.17Z"/></svg>